<svg width="680" height="880" viewBox="0 0 680 880" xmlns="http://www.w3.org/2000/svg">
<rect width="680" height="880" fill="#FFFFFF"/>
<defs><marker id="arrow" viewBox="0 0 10 10" refX="8" refY="5" markerWidth="6" markerHeight="6" orient="auto-start-reverse"><path d="M2 1L8 5L2 9" fill="none" stroke="#5F5E5A" stroke-width="1.5" stroke-linecap="round" stroke-linejoin="round"/></marker></defs>

<g>
<rect x="40" y="20" width="280" height="56" rx="8" fill="#EEEDFE" stroke="#534AB7" stroke-width="0.5"/>
<text x="180" y="40" text-anchor="middle" dominant-baseline="central" font-family="sans-serif" font-size="14" font-weight="500" fill="#3C3489">XDMA PCIe input (H2C stream)</text>
<text x="180" y="58" text-anchor="middle" dominant-baseline="central" font-family="sans-serif" font-size="12" fill="#534AB7">Host replays market data</text>
</g>

<g>
<rect x="360" y="20" width="280" height="56" rx="8" fill="#F1EFE8" stroke="#5F5E5A" stroke-width="0.5"/>
<text x="500" y="40" text-anchor="middle" dominant-baseline="central" font-family="sans-serif" font-size="14" font-weight="500" fill="#444441">Ethernet MAC (RGMII)</text>
<text x="500" y="58" text-anchor="middle" dominant-baseline="central" font-family="sans-serif" font-size="12" fill="#5F5E5A">Future milestone, live feed</text>
</g>

<line x1="180" y1="76" x2="180" y2="116" stroke="#5F5E5A" stroke-width="1.5" marker-end="url(#arrow)"/>
<path d="M500 76 L500 96 L300 96 L300 114" fill="none" stroke="#5F5E5A" stroke-width="1.5" marker-end="url(#arrow)"/>

<g>
<rect x="60" y="116" width="300" height="56" rx="8" fill="#EEEDFE" stroke="#534AB7" stroke-width="0.5"/>
<text x="210" y="136" text-anchor="middle" dominant-baseline="central" font-family="sans-serif" font-size="14" font-weight="500" fill="#3C3489">Protocol adapter (new)</text>
<text x="210" y="154" text-anchor="middle" dominant-baseline="central" font-family="sans-serif" font-size="12" fill="#534AB7">ITCH / Binance to fm24</text>
</g>

<line x1="210" y1="172" x2="210" y2="212" stroke="#5F5E5A" stroke-width="1.5" marker-end="url(#arrow)"/>

<g>
<rect x="60" y="212" width="300" height="56" rx="8" fill="#E1F5EE" stroke="#0F6E56" stroke-width="0.5"/>
<text x="210" y="232" text-anchor="middle" dominant-baseline="central" font-family="sans-serif" font-size="14" font-weight="500" fill="#085041">msg_parser (reused)</text>
<text x="210" y="250" text-anchor="middle" dominant-baseline="central" font-family="sans-serif" font-size="12" fill="#0F6E56">Byte-serial state machine decode</text>
</g>

<line x1="210" y1="268" x2="210" y2="308" stroke="#5F5E5A" stroke-width="1.5" marker-end="url(#arrow)"/>

<g>
<rect x="60" y="308" width="300" height="56" rx="8" fill="#E1F5EE" stroke="#0F6E56" stroke-width="0.5"/>
<text x="210" y="328" text-anchor="middle" dominant-baseline="central" font-family="sans-serif" font-size="14" font-weight="500" fill="#085041">book_update (reused)</text>
<text x="210" y="346" text-anchor="middle" dominant-baseline="central" font-family="sans-serif" font-size="12" fill="#0F6E56">BRAM order book, price window</text>
</g>

<line x1="210" y1="364" x2="210" y2="404" stroke="#5F5E5A" stroke-width="1.5" marker-end="url(#arrow)"/>

<g>
<rect x="60" y="404" width="300" height="56" rx="8" fill="#E1F5EE" stroke="#0F6E56" stroke-width="0.5"/>
<text x="210" y="424" text-anchor="middle" dominant-baseline="central" font-family="sans-serif" font-size="14" font-weight="500" fill="#085041">priority_encoder (pipelined)</text>
<text x="210" y="442" text-anchor="middle" dominant-baseline="central" font-family="sans-serif" font-size="12" fill="#0F6E56">2-stage, 64-bit groups</text>
</g>

<line x1="210" y1="460" x2="210" y2="500" stroke="#5F5E5A" stroke-width="1.5" marker-end="url(#arrow)"/>

<g>
<rect x="60" y="500" width="300" height="56" rx="8" fill="#E1F5EE" stroke="#0F6E56" stroke-width="0.5"/>
<text x="210" y="520" text-anchor="middle" dominant-baseline="central" font-family="sans-serif" font-size="14" font-weight="500" fill="#085041">tob_tracker (reused)</text>
<text x="210" y="538" text-anchor="middle" dominant-baseline="central" font-family="sans-serif" font-size="12" fill="#0F6E56">Assembles best bid/ask</text>
</g>

<line x1="210" y1="556" x2="210" y2="596" stroke="#5F5E5A" stroke-width="1.5" marker-end="url(#arrow)"/>

<g>
<rect x="60" y="596" width="300" height="56" rx="8" fill="#EEEDFE" stroke="#534AB7" stroke-width="0.5"/>
<text x="210" y="616" text-anchor="middle" dominant-baseline="central" font-family="sans-serif" font-size="14" font-weight="500" fill="#3C3489">Feature engine (new)</text>
<text x="210" y="634" text-anchor="middle" dominant-baseline="central" font-family="sans-serif" font-size="12" fill="#534AB7">6 features, no mul/div</text>
</g>

<line x1="210" y1="652" x2="210" y2="692" stroke="#5F5E5A" stroke-width="1.5" marker-end="url(#arrow)"/>

<g>
<rect x="60" y="692" width="300" height="56" rx="8" fill="#EEEDFE" stroke="#534AB7" stroke-width="0.5"/>
<text x="210" y="712" text-anchor="middle" dominant-baseline="central" font-family="sans-serif" font-size="14" font-weight="500" fill="#3C3489">Board-link TX (new)</text>
<text x="210" y="730" text-anchor="middle" dominant-baseline="central" font-family="sans-serif" font-size="12" fill="#534AB7">Packs & sends fixed-point vector</text>
</g>

<line x1="210" y1="748" x2="210" y2="788" stroke="#5F5E5A" stroke-width="1.5" marker-end="url(#arrow)"/>

<g>
<rect x="80" y="788" width="260" height="44" rx="8" fill="#F1EFE8" stroke="#5F5E5A" stroke-width="0.5"/>
<text x="210" y="810" text-anchor="middle" dominant-baseline="central" font-family="sans-serif" font-size="14" font-weight="500" fill="#444441">to Pynq Z1 (QNN, not shown)</text>
</g>

<g>
<rect x="400" y="308" width="240" height="56" rx="8" fill="#E1F5EE" stroke="#0F6E56" stroke-width="0.5"/>
<text x="520" y="328" text-anchor="middle" dominant-baseline="central" font-family="sans-serif" font-size="14" font-weight="500" fill="#085041">AXI-Lite status registers</text>
<text x="520" y="346" text-anchor="middle" dominant-baseline="central" font-family="sans-serif" font-size="12" fill="#0F6E56">feed_handler reused</text>
</g>

<g>
<rect x="400" y="404" width="240" height="56" rx="8" fill="#E1F5EE" stroke="#0F6E56" stroke-width="0.5"/>
<text x="520" y="424" text-anchor="middle" dominant-baseline="central" font-family="sans-serif" font-size="14" font-weight="500" fill="#085041">latency_counter (reused)</text>
<text x="520" y="442" text-anchor="middle" dominant-baseline="central" font-family="sans-serif" font-size="12" fill="#0F6E56">Hardware cycle counter</text>
</g>

<line x1="360" y1="528" x2="400" y2="352" stroke="#888780" stroke-width="0.5" stroke-dasharray="3 3"/>
<line x1="360" y1="432" x2="400" y2="432" stroke="#888780" stroke-width="0.5" stroke-dasharray="3 3"/>

<rect x="60" y="852" width="12" height="12" rx="2" fill="#5DCAA5"/>
<text x="80" y="862" font-family="sans-serif" font-size="12" fill="#444441">Reused module</text>
<rect x="200" y="852" width="12" height="12" rx="2" fill="#AFA9EC"/>
<text x="220" y="862" font-family="sans-serif" font-size="12" fill="#444441">New module</text>
<rect x="320" y="852" width="12" height="12" rx="2" fill="#B4B2A9"/>
<text x="340" y="862" font-family="sans-serif" font-size="12" fill="#444441">External / future milestone</text>

</svg>
